<svg id="Calque_1" data-name="Calque 1" xmlns="http://www.w3.org/2000/svg" xmlns:xlink="http://www.w3.org/1999/xlink" viewBox="0 0 940 940"><defs><style>.cls-1{fill:url(#Dégradé_sans_nom_66);}.cls-2{fill:url(#Dégradé_sans_nom_89);}.cls-3{fill:url(#Dégradé_sans_nom_97);}.cls-4{fill:none;}.cls-5{opacity:0.56;}.cls-6{fill:url(#Dégradé_sans_nom_18);}.cls-7{fill:url(#Dégradé_sans_nom_97-2);}.cls-8{opacity:0.36;}.cls-9{fill:url(#Dégradé_sans_nom_4);}.cls-10{opacity:0.3;fill:url(#Dégradé_sans_nom_14);}.cls-11{fill:url(#Dégradé_sans_nom_69);}</style><linearGradient id="Dégradé_sans_nom_66" x1="692.63" y1="983.04" x2="192.21" y2="441.76" gradientUnits="userSpaceOnUse"><stop offset="0" stop-color="#8af3f3"/><stop offset="0.11" stop-color="#7ddff6"/><stop offset="0.31" stop-color="#6cc4fa"/><stop offset="0.5" stop-color="#5fb1fd"/><stop offset="0.7" stop-color="#57a6fe"/><stop offset="0.91" stop-color="#55a2ff"/><stop offset="0.99" stop-color="#0ab5ff"/></linearGradient><linearGradient id="Dégradé_sans_nom_89" x1="149.86" y1="469.99" x2="841.66" y2="469.99" gradientUnits="userSpaceOnUse"><stop offset="0.45" stop-color="#5d64e4"/><stop offset="1" stop-color="#5cceff"/></linearGradient><linearGradient id="Dégradé_sans_nom_97" x1="688.66" y1="470.79" x2="904.66" y2="470.79" gradientUnits="userSpaceOnUse"><stop offset="0" stop-color="#5d64e4"/><stop offset="0.1" stop-color="#5d7dea"/><stop offset="0.25" stop-color="#5c9af2"/><stop offset="0.4" stop-color="#5cb1f8"/><stop offset="0.57" stop-color="#5cc1fc"/><stop offset="0.75" stop-color="#5ccbfe"/><stop offset="1" stop-color="#5cceff"/></linearGradient><linearGradient id="Dégradé_sans_nom_18" x1="149.91" y1="469.91" x2="841.71" y2="469.91" gradientUnits="userSpaceOnUse"><stop offset="0" stop-color="#554fc6"/><stop offset="1" stop-color="#6248cc"/></linearGradient><linearGradient id="Dégradé_sans_nom_97-2" x1="389.54" y1="470.57" x2="650.55" y2="470.57" xlink:href="#Dégradé_sans_nom_97"/><linearGradient id="Dégradé_sans_nom_4" x1="242.42" y1="410.59" x2="343.52" y2="992.72" gradientUnits="userSpaceOnUse"><stop offset="0" stop-color="#fff"/><stop offset="1" stop-color="#fff" stop-opacity="0"/></linearGradient><linearGradient id="Dégradé_sans_nom_14" x1="557.4" y1="251.88" x2="530.85" y2="635.88" gradientUnits="userSpaceOnUse"><stop offset="0.46" stop-color="#fff"/><stop offset="1" stop-color="#fffceb" stop-opacity="0"/></linearGradient><linearGradient id="Dégradé_sans_nom_69" x1="-47.17" y1="750.88" x2="786.19" y2="-122.32" gradientUnits="userSpaceOnUse"><stop offset="0" stop-color="#63f0f0"/><stop offset="0.52" stop-color="#7d83ea"/><stop offset="1" stop-color="#3c45df"/></linearGradient></defs><path class="cls-1" d="M841.3,756.53l-.68.86-2.9,3.7-.93,1.17c-.52.65-1,1.32-1.58,2-.68.86-1.37,1.69-2.07,2.53s-1.31,1.6-2,2.39c-.91,1.11-1.84,2.21-2.77,3.3s-1.92,2.26-2.89,3.39-2.19,2.52-3.29,3.77c-.61.7-1.22,1.38-1.83,2.06s-1.46,1.64-2.19,2.44-1.46,1.62-2.2,2.41q-1.65,1.82-3.35,3.61c-.73.79-1.47,1.58-2.22,2.36-1.12,1.18-2.24,2.37-3.39,3.55L805.18,798q-2.83,2.91-5.75,5.75c-1.15,1.14-2.31,2.27-3.46,3.38l-.87.83-2,1.9q-7.3,6.93-14.93,13.56c-.68.59-1.36,1.19-2,1.77-1.91,1.67-3.85,3.29-5.8,4.92-1.29,1.07-2.58,2.14-3.89,3.2l-.5.41c-.79.65-1.59,1.27-2.39,1.92s-1.7,1.36-2.55,2l-2,1.57c-3.74,2.91-7.5,5.77-11.32,8.59-.73.54-1.46,1.06-2.19,1.58q-5.64,4.1-11.39,8c-.73.51-1.47,1-2.2,1.5-1.4.95-2.8,1.87-4.2,2.79s-2.85,1.86-4.29,2.77l-3.54,2.25c-.58.38-1.17.74-1.75,1.1-3.9,2.42-7.83,4.8-11.8,7.1-1.71,1-3.44,2-5.17,3-1.5.84-3,1.68-4.5,2.51q-3.49,1.93-7,3.8c-.62.33-1.24.67-1.87,1q-3.68,1.93-7.39,3.79L678,890.08l-4.47,2.16c-1.12.55-2.25,1.09-3.38,1.61-.75.36-1.52.72-2.28,1.06-1.33.63-2.67,1.24-4,1.85h0c-1.68.75-3.38,1.52-5.07,2.25-.09,0-.19.08-.28.12-1.57.7-3.15,1.37-4.74,2-.17.07-.33.15-.5.21-1.46.62-2.92,1.24-4.39,1.83l-1.63.67c-1.23.51-2.47,1-3.71,1.48-.39.17-.79.32-1.19.48l-4,1.54-1,.4c-1.68.64-3.39,1.29-5.1,1.9q-12.82,4.71-26,8.66l-2.32.69c-1.78.53-3.56,1-5.36,1.54-1.3.37-2.61.73-3.91,1.07-1.61.45-3.23.87-4.86,1.3l-2.45.64q-2.72.69-5.44,1.35l-3.06.72-1.34.31-1.65.38-4.41,1-3.87.81-.82.18-2.2.45c-1.21.25-2.42.48-3.63.71l-2.09.4c-1.51.29-3,.57-4.55.84h0c-1.89.35-3.8.67-5.71,1-1.47.25-2.92.47-4.39.7-.7.12-1.4.22-2.11.32-1.55.24-3.1.47-4.66.69l-6.28.85-3.94.47c-.2,0-.39.06-.58.08l-2,.23c-1.75.19-3.5.38-5.25.55s-3.43.34-5.15.5c-1.52.14-3,.27-4.58.39-1,.09-2.07.16-3.11.24h0l-4.75.34-.42,0c-1.89.12-3.78.23-5.67.32q-5.22.27-10.49.42l-2.67.06h-.33c-1.51,0-3,.06-4.52.08-2,0-4,0-6,0a465,465,0,0,1-239.79-66.16A469.1,469.1,0,0,1,149.86,470c52,201.85,235.19,351,453.26,351a465.86,465.86,0,0,0,237.36-64.57l.81.11Z"/><path class="cls-2" d="M674.8,676.6a286.36,286.36,0,0,0,165.68,79.82A465.86,465.86,0,0,1,603.12,821c-218.07,0-401.3-149.15-453.26-351,52-201.85,235.19-351,453.26-351A465.79,465.79,0,0,1,839.86,183.2c.6.77,1.2,1.54,1.8,2.33A286.52,286.52,0,0,0,674.37,265.9l-.53.52-2.76-2.7c-.67-.63-1.33-1.27-2-1.89-.94-.9-1.88-1.77-2.83-2.66-.79-.72-1.58-1.45-2.37-2.14s-1.68-1.5-2.52-2.24q-4.7-4.14-9.56-8.06l-2.08-1.66q-3.56-2.81-7.18-5.49c-.89-.67-1.78-1.32-2.67-2s-1.86-1.32-2.8-2c-1.62-1.16-3.27-2.29-4.94-3.42-.71-.49-1.43-1-2.15-1.43q-3.16-2.1-6.41-4.13l-1.89-1.17c-.62-.39-1.25-.77-1.88-1.14-1-.6-2-1.19-3-1.75s-2-1.17-3-1.75c-2-1.14-4-2.25-6-3.34q-4.76-2.55-9.62-4.94c-.91-.45-1.82-.9-2.73-1.33s-2.08-1-3.13-1.48c-2.92-1.35-5.86-2.64-8.84-3.91l-3-1.25c-2.24-.93-4.52-1.81-6.8-2.69l-2.63-1c-2.9-1.06-5.81-2.08-8.76-3.06l-2.43-.8q-4.75-1.55-9.59-2.91l-3.42-.95c-.85-.23-1.68-.46-2.53-.66-3.12-.83-6.27-1.59-9.43-2.31-.53-.1-1.06-.23-1.59-.35-4.7-1-9.43-1.94-14.2-2.73h0l-.18,0c-1.18-.21-2.37-.4-3.56-.57-.59-.1-1.18-.18-1.77-.26-1.8-.27-3.59-.52-5.4-.75-1.2-.16-2.4-.3-3.61-.44-1-.12-2.06-.23-3.1-.33-.35,0-.7-.08-1.05-.11-1.09-.11-2.18-.22-3.27-.31s-2.41-.21-3.62-.29c-.86-.07-1.73-.14-2.59-.19-1.56-.1-3.12-.2-4.69-.27q-7.3-.37-14.7-.38c-144.43,0-264,106.51-284.44,245.26-.92,6.24-1.64,12.56-2.15,18.92a.28.28,0,0,0,0,.09q-.93,11.52-.93,23.28,0,10,.68,19.83v.11A286.3,286.3,0,0,0,254.17,659l.36.41,1.91,2.2a286.91,286.91,0,0,0,215.14,96.76q7.38,0,14.68-.37l3.23-.17c2.75-.18,5.5-.39,8.23-.64,1.09-.08,2.18-.2,3.27-.3,3.51-.36,7-.78,10.48-1.26l2-.29,1.89-.29c1.19-.17,2.38-.37,3.56-.57s2.37-.39,3.55-.6l3.07-.58,2.07-.4,1.9-.38c.9-.17,1.8-.37,2.69-.57.38-.07.76-.17,1.14-.25,1.06-.22,2.11-.45,3.16-.7s2.31-.53,3.44-.81c1.44-.35,2.88-.72,4.31-1.08.88-.22,1.74-.46,2.61-.7,1.23-.32,2.45-.67,3.66-1s2.12-.6,3.16-.92c3.16-.94,6.27-1.93,9.38-3,.76-.25,1.53-.51,2.29-.78l1.84-.64c1.09-.38,2.17-.76,3.24-1.17s2.2-.8,3.29-1.23c.82-.3,1.64-.61,2.45-.95l2-.79c.67-.26,1.33-.52,2-.79.83-.33,1.66-.68,2.48-1l2.31-1c2.42-1,4.81-2.11,7.19-3.21l3.13-1.47c1-.49,2.08-1,3.12-1.51.61-.3,1.22-.59,1.83-.91s1.37-.67,2-1l2.31-1.19c1-.54,2-1.07,3-1.62s2-1.07,3-1.63,2-1.1,2.94-1.66c1.19-.67,2.36-1.34,3.53-2,.65-.4,1.3-.77,1.94-1.17s1.34-.8,2-1.19c.87-.53,1.73-1.07,2.59-1.61.68-.42,1.35-.83,2-1.27s1.54-1,2.3-1.48l.63-.4,2.28-1.52c2.15-1.41,4.27-2.87,6.36-4.36.81-.56,1.61-1.15,2.41-1.73l1.85-1.33,2.13-1.59c.59-.43,1.17-.86,1.74-1.31.77-.57,1.54-1.17,2.3-1.77q3-2.33,6-4.76l1.72-1.41q7.11-5.91,13.84-12.27c.59-.56,1.18-1.11,1.76-1.69.87-.85,1.76-1.7,2.63-2.57C674,675.82,674.39,676.21,674.8,676.6Z"/><circle class="cls-3" cx="796.66" cy="470.79" r="108"/><circle class="cls-4" cx="468.38" cy="469.78" r="468"/><g class="cls-5"><path class="cls-6" d="M674.85,676.52a286.48,286.48,0,0,0,165.68,79.82,465.86,465.86,0,0,1-237.36,64.57c-218.07,0-401.3-149.15-453.26-351,52-201.85,235.19-351,453.26-351a465.79,465.79,0,0,1,236.74,64.21l1.8,2.32a286.6,286.6,0,0,0-167.29,80.38l-.53.52-2.76-2.7-2-1.9-2.83-2.65c-.79-.72-1.58-1.45-2.37-2.15s-1.68-1.5-2.52-2.24c-3.13-2.76-6.31-5.43-9.56-8L649.77,245q-3.56-2.79-7.18-5.49-1.33-1-2.67-2c-.93-.68-1.86-1.33-2.8-2q-2.43-1.74-4.94-3.42c-.71-.49-1.43-1-2.15-1.44-2.11-1.39-4.25-2.77-6.41-4.12l-1.89-1.17c-.62-.39-1.25-.77-1.88-1.14-1-.6-2-1.19-3-1.76l-3-1.74c-2-1.14-4-2.25-6-3.34-3.17-1.71-6.37-3.35-9.62-5q-1.37-.67-2.73-1.32c-1-.5-2.08-1-3.13-1.48q-4.38-2-8.84-3.91l-3-1.25c-2.24-.93-4.52-1.82-6.8-2.69l-2.63-1c-2.9-1.07-5.81-2.09-8.76-3.07l-2.43-.8q-4.76-1.54-9.59-2.9c-1.14-.33-2.28-.64-3.42-1-.85-.23-1.68-.46-2.53-.67-3.12-.82-6.27-1.58-9.43-2.3l-1.59-.35q-7.05-1.55-14.2-2.73h0l-.18,0c-1.18-.2-2.37-.39-3.56-.57l-1.77-.26c-1.8-.27-3.59-.52-5.4-.75l-3.61-.43-3.1-.34-1.05-.1c-1.09-.12-2.18-.22-3.27-.31s-2.41-.21-3.62-.3l-2.59-.18c-1.56-.11-3.12-.2-4.69-.28q-7.31-.37-14.7-.37c-144.43,0-264,106.51-284.44,245.26q-1.38,9.36-2.15,18.92a.28.28,0,0,0,0,.09q-.93,11.52-.93,23.27,0,10,.68,19.84v.11a286.36,286.36,0,0,0,69.44,168.22l.36.41,1.91,2.19a286.77,286.77,0,0,0,215.14,96.76c4.92,0,9.82-.11,14.68-.36,1.08,0,2.15-.11,3.23-.18,2.75-.17,5.5-.38,8.23-.63,1.09-.09,2.18-.2,3.27-.31,3.51-.35,7-.78,10.48-1.26l2-.29,1.89-.28c1.19-.18,2.38-.37,3.56-.57s2.37-.4,3.55-.61,2.06-.37,3.07-.57l2.07-.4,1.9-.38c.9-.18,1.8-.37,2.69-.57l1.14-.25c1.06-.22,2.11-.45,3.16-.7s2.31-.53,3.44-.81l4.31-1.09c.88-.22,1.74-.45,2.61-.69q1.85-.49,3.66-1c1.06-.3,2.12-.6,3.16-.92,3.16-.94,6.27-1.93,9.38-3,.76-.25,1.53-.51,2.29-.78l1.84-.65c1.09-.37,2.17-.76,3.24-1.16s2.2-.81,3.29-1.23c.82-.31,1.64-.62,2.45-.95l2-.79c.67-.26,1.33-.52,2-.79l2.48-1,2.31-1c2.42-1,4.81-2.11,7.19-3.21l3.13-1.47c1-.49,2.08-1,3.12-1.51l1.83-.91c.68-.34,1.37-.68,2-1l2.31-1.2c1-.53,2-1.06,3-1.61s2-1.08,3-1.64,2-1.09,2.94-1.65c1.19-.67,2.36-1.35,3.53-2l1.94-1.16,2-1.19c.87-.53,1.73-1.07,2.59-1.61l2-1.27c.77-.49,1.54-1,2.3-1.48l.63-.4,2.28-1.52c2.15-1.42,4.27-2.88,6.36-4.36.81-.57,1.61-1.15,2.41-1.73l1.85-1.34c.72-.52,1.43-1.05,2.13-1.58s1.17-.87,1.74-1.31c.77-.58,1.54-1.17,2.3-1.77,2-1.56,4-3.14,6-4.76l1.72-1.41q7.11-5.91,13.84-12.27c.59-.56,1.18-1.12,1.76-1.69l2.63-2.57Z"/></g><path class="cls-7" d="M605.25,590.1A180,180,0,0,0,610,356.94l0,.05h0l0-.05a181.13,181.13,0,0,0-139.77-66.51v.28H389.54a71.74,71.74,0,0,0,71.73,71.73h6.5a107.73,107.73,0,0,1-1.68,215.45v.55h-4.82a71.73,71.73,0,0,0-71.73,71.73v.54h81A179.57,179.57,0,0,0,605.25,590.1c-.06-.14-.11-.29-.17-.43h0C605.14,589.81,605.2,590,605.25,590.1Z"/><g class="cls-8"><path class="cls-9" d="M149.37,490.13q0-9,.34-18c-.23-.86-.47-1.71-.69-2.56A469.1,469.1,0,0,0,231,871.5a465,465,0,0,0,239.79,66.15c2,0,4,0,6,0l3-.05C288.44,878.78,149.37,700.7,149.37,490.13Z"/></g><circle class="cls-4" cx="468.33" cy="469.87" r="468"/><path class="cls-10" d="M607.21,470.75A108,108,0,0,1,479.74,577a108,108,0,0,0,26.4-207.42,106.16,106.16,0,0,0-21.67-5.81,108,108,0,0,1,122.74,107Z"/><rect class="cls-4" x="0.26" y="2.43" width="900" height="936"/><path class="cls-11" d="M839.65,182.93l-2-2.56c-1.19-1.5-2.4-3-3.61-4.48l-.78-1c-.6-.74-1.2-1.46-1.81-2.19q-3.12-3.8-6.35-7.5c-.53-.6-1.06-1.23-1.59-1.84q-2.43-2.78-4.91-5.51c-.73-.81-1.46-1.63-2.2-2.44-1-1.11-2-2.23-3.09-3.33s-1.82-2-2.74-2.92c-1.19-1.26-2.37-2.51-3.58-3.74-.61-.62-1.22-1.26-1.84-1.87l-2.29-2.34c-.62-.61-1.23-1.24-1.85-1.85l-1.14-1.11c-1.33-1.33-2.67-2.63-4-3.92-1.57-1.52-3.15-3-4.75-4.52-.8-.75-1.6-1.48-2.39-2.23l-2.41-2.22-1.77-1.58c-.47-.43-.93-.85-1.4-1.26s-1.13-1-1.7-1.51c-.95-.86-1.91-1.7-2.87-2.54l-2.07-1.78L774,114.6l-2.09-1.76q-5.22-4.4-10.57-8.62l-2.58-2-2.59-2c-.8-.61-1.59-1.23-2.39-1.83-1.25-.94-2.49-1.88-3.75-2.81-.8-.61-1.6-1.19-2.4-1.79l-2-1.41c-1.2-.88-2.4-1.74-3.61-2.6l-3.51-2.48-.91-.62c-.7-.5-1.41-1-2.11-1.46-.36-.25-.71-.5-1.07-.73-.74-.52-1.49-1-2.24-1.52q-5.55-3.75-11.22-7.31c-1.77-1.14-3.57-2.25-5.37-3.36l-2.73-1.67c-1-.59-1.93-1.16-2.9-1.72l-2.22-1.32c-4.56-2.68-9.16-5.26-13.82-7.8-1.35-.74-2.7-1.46-4.07-2.18l-1.4-.74c-1.15-.61-2.31-1.19-3.46-1.79-2-1.07-4.12-2.11-6.2-3.15-1.22-.59-2.45-1.21-3.68-1.79l-1.4-.68c-1.52-.73-3-1.46-4.58-2.17l-.13-.06c-1.66-.78-3.33-1.55-5-2.3L659.83,43c-.74-.33-1.48-.64-2.23-1-3.22-1.41-6.46-2.77-9.72-4.11l-4.24-1.7c-2.12-.85-4.26-1.66-6.4-2.48-1.62-.62-3.25-1.22-4.89-1.83l-.13,0q-2.36-.87-4.72-1.71-3.16-1.12-6.35-2.2l-4.6-1.52c-.33-.09-.66-.21-1-.32-1.37-.45-2.76-.89-4.14-1.31l-2-.65c-1.21-.37-2.43-.75-3.65-1.1-3.91-1.18-7.83-2.28-11.77-3.36-1.4-.37-2.8-.75-4.2-1.1-.75-.21-1.5-.4-2.24-.58-1.14-.31-2.29-.6-3.45-.88l-3-.73q-7.78-1.87-15.69-3.48c-1.44-.3-2.87-.58-4.31-.85l-1.78-.35c-1.63-.31-3.28-.61-4.92-.9h-.06c-1.83-.34-3.68-.66-5.53-.95l-1.14-.2c-1.48-.25-3-.48-4.44-.71q-2.85-.44-5.72-.84l-2.08-.29c-1.43-.2-2.86-.39-4.29-.55q-2.75-.34-5.51-.66c-.25,0-.48,0-.72-.08-1.83-.21-3.66-.42-5.5-.6-1.31-.13-2.63-.27-4-.37s-2.51-.24-3.77-.35l-3-.25c-.58,0-1.16-.09-1.75-.12-2-.16-4-.29-6-.42-1.56-.1-3.12-.19-4.67-.26-.68,0-1.35-.07-2-.09-1.39-.07-2.78-.15-4.17-.2L485,3.73c-.84,0-1.67,0-2.51-.06h-.36c-1.51,0-3-.06-4.53-.07-2,0-4,0-6,0-258,0-467.24,209.19-467.24,467.24,0,170.38,91.2,319.47,227.45,401.09A465.94,465.94,0,0,1,135.12,587c0-258.46,209.53-468,468-468A465.79,465.79,0,0,1,839.86,183.2,3.17,3.17,0,0,1,839.65,182.93Z"/></svg>